<?xml version="1.0" encoding="utf-8"?>
<!-- Generator: Adobe Illustrator 16.0.0, SVG Export Plug-In . SVG Version: 6.00 Build 0)  -->
<!DOCTYPE svg PUBLIC "-//W3C//DTD SVG 1.1//EN" "http://www.w3.org/Graphics/SVG/1.1/DTD/svg11.dtd">
<svg version="1.1" id="Layer_1" xmlns="http://www.w3.org/2000/svg" xmlns:xlink="http://www.w3.org/1999/xlink" x="0px" y="0px"
	 width="637px" height="633px" viewBox="-20.86 103.445 637 633" enable-background="new -20.86 103.445 637 633"
	 xml:space="preserve">
<path d="M483.665,365.138c0,53.366-17.324,102.663-46.507,142.659l147.192,147.309c14.533,14.533,14.533,38.135,0,52.668
	s-38.135,14.533-52.668,0L384.49,560.464c-39.995,29.299-89.292,46.506-142.658,46.506C108.243,606.97,0,498.726,0,365.138
	c0-133.589,108.243-241.833,241.832-241.833C375.422,123.305,483.665,231.548,483.665,365.138z M120.916,374.439v74.41
	c0,15.463,12.44,27.904,27.903,27.904c15.464,0,27.904-12.441,27.904-27.904v-74.41c0-15.463-12.44-27.904-27.904-27.904
	C133.357,346.535,120.916,358.976,120.916,374.439z M213.929,262.824v186.025c0,15.463,12.44,27.904,27.903,27.904
	c15.464,0,27.904-12.441,27.904-27.904V262.824c0-15.463-12.44-27.904-27.904-27.904C226.369,234.92,213.929,247.36,213.929,262.824
	z M306.942,337.234v111.615c0,15.463,12.439,27.904,27.903,27.904c15.463,0,27.903-12.441,27.903-27.904V337.234
	c0-15.463-12.44-27.904-27.903-27.904C319.381,309.33,306.942,321.771,306.942,337.234z"/>
</svg>
